<svg width="105" height="27" viewBox="0 0 105 27" fill="none" xmlns="http://www.w3.org/2000/svg">
<g clip-path="url(#clip0_2028_646)">
<path d="M29.2001 11.6901L23.5201 1.76012C22.9101 0.710116 21.8101 0.0601155 20.6001 0.0501155L9.15009 0.000115494C7.95009 -0.00988451 6.83009 0.630116 6.23009 1.68012L0.460089 11.5501C-0.149911 12.5901 -0.159911 13.8801 0.450089 14.9301L6.12009 24.8701C6.73009 25.9101 7.83009 26.5701 9.04009 26.5701L20.4801 26.6101C21.6901 26.6201 22.8001 25.9801 23.4201 24.9401L29.1801 15.0601C29.8001 14.0201 29.8001 12.7301 29.2001 11.6801V11.6901ZM27.7001 14.0401C27.6301 14.3201 27.5201 14.5901 27.3801 14.8501L22.3501 23.5001C21.8101 24.4101 20.8401 24.9601 19.7701 24.9601L9.78009 24.9201C8.72009 24.9201 7.74009 24.3501 7.23009 23.4301L2.25009 14.7401C1.72009 13.8201 1.72009 12.6901 2.26009 11.7801L7.31009 3.14012C7.84009 2.22012 8.82009 1.67012 9.88009 1.67012L19.8901 1.71012C20.6701 1.71012 21.4101 2.02012 21.9601 2.58012C22.1401 2.76012 22.3101 2.97012 22.4301 3.20012L27.3901 11.8801C27.7701 12.5401 27.8701 13.3101 27.7001 14.0301V14.0401Z" fill="#333333"/>
<path d="M19.6101 20.0605L19.4601 19.9505L11.9501 19.9305L15.0001 14.7305L16.3901 16.1405L16.4101 16.1605C16.6901 16.3805 17.1001 16.3605 17.3801 16.1305L17.4501 16.0705C17.8201 15.6605 18.1701 15.3005 18.4901 14.9605C18.5801 14.8705 18.7001 14.7705 18.8301 14.6605C19.0901 14.4405 19.3601 14.1905 19.5601 13.9205C19.9201 13.4205 19.7201 13.0305 19.5601 12.8405L19.4901 12.7705C19.1901 12.5005 18.8801 12.1605 18.5801 11.8405C18.2601 11.4805 17.9201 11.1105 17.5501 10.8005C17.4201 10.6905 17.1701 10.4805 16.8301 10.4805C16.6801 10.4805 16.5401 10.5205 16.3901 10.6005L16.3501 10.6305L15.0501 11.9705L11.9601 6.66055H19.1401C19.4301 6.66055 19.6201 6.54055 19.7301 6.44055C19.8901 6.29055 19.9801 6.09055 19.9801 5.87055C19.9801 5.41055 19.6001 5.06055 19.1301 5.06055H10.5501C10.1501 5.06055 9.71014 5.32055 9.66014 5.77055L9.64014 5.96055L13.9301 13.3305L9.71014 20.4905L9.69014 20.5805C9.65014 20.7405 9.60014 21.1405 10.0701 21.4405L10.2201 21.5305L19.1201 21.5605C19.5101 21.5605 19.8401 21.3405 19.9501 21.0005C20.0601 20.6505 19.9301 20.2805 19.6101 20.0505V20.0605ZM16.9101 12.1105L18.1501 13.3905L18.0701 13.4605C17.9501 13.5805 17.8101 13.7105 17.7301 13.7805L17.7101 13.8005C17.6201 13.8905 17.5501 13.9505 17.5201 13.9805C17.3901 14.1005 17.2601 14.2405 17.1401 14.3805L16.8801 14.6405L15.6701 13.3405L16.9001 12.1105H16.9101Z" fill="#333333"/>
<path d="M19.6101 20.0605L19.4601 19.9505L11.9501 19.9305L15.0001 14.7305L16.3901 16.1405L16.4101 16.1605C16.6901 16.3805 17.1001 16.3605 17.3801 16.1305L17.4501 16.0705C17.8201 15.6605 18.1701 15.3005 18.4901 14.9605C18.5801 14.8705 18.7001 14.7705 18.8301 14.6605C19.0901 14.4405 19.3601 14.1905 19.5601 13.9205C19.9201 13.4205 19.7201 13.0305 19.5601 12.8405L19.4901 12.7705C19.1901 12.5005 18.8801 12.1605 18.5801 11.8405C18.2601 11.4805 17.9201 11.1105 17.5501 10.8005C17.4201 10.6905 17.1701 10.4805 16.8301 10.4805C16.6801 10.4805 16.5401 10.5205 16.3901 10.6005L16.3501 10.6305L15.0501 11.9705L11.9601 6.66055H19.1401C19.4301 6.66055 19.6201 6.54055 19.7301 6.44055C19.8901 6.29055 19.9801 6.09055 19.9801 5.87055C19.9801 5.41055 19.6001 5.06055 19.1301 5.06055H10.5501C10.1501 5.06055 9.71014 5.32055 9.66014 5.77055L9.64014 5.96055L13.9301 13.3305L9.71014 20.4905L9.69014 20.5805C9.65014 20.7405 9.60014 21.1405 10.0701 21.4405L10.2201 21.5305L19.1201 21.5605C19.5101 21.5605 19.8401 21.3405 19.9501 21.0005C20.0601 20.6505 19.9301 20.2805 19.6101 20.0505V20.0605ZM16.9101 12.1105L18.1501 13.3905L18.0701 13.4605C17.9501 13.5805 17.8101 13.7105 17.7301 13.7805L17.7101 13.8005C17.6201 13.8905 17.5501 13.9505 17.5201 13.9805C17.3901 14.1005 17.2601 14.2405 17.1401 14.3805L16.8801 14.6405L15.6701 13.3405L16.9001 12.1105H16.9101Z" fill="#333333"/>
<path d="M73.6298 1.53977C73.7998 1.37977 73.8998 1.14977 73.8998 0.909766C73.8998 0.409766 73.4898 0.00976562 72.9698 0.00976562H63.7898C63.3498 0.00976562 62.8698 0.299766 62.8198 0.789766L62.7998 0.999766L67.3798 8.86977L62.8698 16.5198L62.8398 16.6198C62.7898 16.7898 62.7498 17.2298 63.2598 17.5598L63.4198 17.6598L72.9398 17.6898C73.3698 17.6898 73.7198 17.4498 73.8398 17.0798C73.9598 16.6998 73.8198 16.2898 73.4698 16.0398L73.2998 15.9198L65.3098 15.8998L68.5298 10.3898L69.9898 11.8798L70.0298 11.9098C70.3398 12.1498 70.7998 12.1398 71.1098 11.8798L71.1698 11.8198C71.5698 11.3698 71.9398 10.9898 72.2898 10.6298C72.3898 10.5298 72.5098 10.4198 72.6398 10.3098C72.9198 10.0598 73.2098 9.79977 73.4298 9.50977C73.7198 9.10977 73.7198 8.68976 73.4298 8.32977L73.3598 8.25977C73.0398 7.96977 72.6998 7.59977 72.3898 7.26977C72.0398 6.87977 71.6698 6.47977 71.2798 6.14977C71.1398 6.02977 70.8698 5.79977 70.4998 5.79977C70.3298 5.79977 70.1698 5.84977 70.0198 5.92977L69.9598 5.95977L68.5898 7.37977L65.3298 1.75977H72.9598C73.2798 1.75977 73.4898 1.62977 73.6098 1.51977L73.6298 1.53977ZM69.6098 8.89977L70.5798 7.91977L71.5798 8.92977C71.4698 9.03977 71.3498 9.13977 71.2898 9.20977C71.1898 9.29977 71.1198 9.36977 71.0898 9.39977C70.9598 9.52977 70.8398 9.65977 70.7198 9.78977L70.5798 9.92977L69.6198 8.89977H69.6098Z" fill="#333333"/>
<path d="M55.8397 9.24007C56.8997 9.24007 58.1197 9.16007 59.2897 8.21007C60.7797 7.01007 61.3297 5.11007 60.7397 3.25007C60.1497 1.40007 58.5897 0.170069 56.6797 0.0500694C56.3097 0.0300694 55.9197 0.0200694 55.4697 0.0200694C55.2197 0.0200694 54.9997 0.0200694 54.7897 0.0200694C54.5097 0.0200694 54.2497 0.0100694 53.9697 0.0200694C53.3097 0.0400694 52.5897 0.0600694 52.0197 0.0400694C51.8597 0.0400694 51.7097 0.0400694 51.5497 0.0400694H51.4297H50.6297V16.1801L50.6097 16.2801C50.6097 16.3201 50.6097 16.4601 50.6097 16.5201C50.5997 16.7501 50.5797 17.0101 50.6897 17.2501C50.8297 17.5401 51.1197 17.7101 51.4597 17.7101C51.9097 17.7101 52.2797 17.4201 52.3497 17.0201V1.83007H56.8297C56.9497 1.84007 57.4697 2.02007 57.6597 2.12007C58.4997 2.54007 59.0697 3.35007 59.1897 4.28007C59.3097 5.23007 58.9697 6.14007 58.2497 6.76007C57.5597 7.36007 56.7397 7.49007 55.7297 7.49007C55.5097 7.49007 55.2997 7.49007 55.0697 7.49007H55.0297C54.6497 7.49007 54.2297 7.47007 53.8997 7.49007H53.7997C53.5797 7.54007 53.3897 7.67007 53.2597 7.87007C53.1197 8.09007 53.0797 8.36007 53.1397 8.62007L53.1697 8.72007L53.2597 8.85007C54.0297 9.85007 54.7997 10.8801 55.5497 11.8701C56.6397 13.3101 57.7597 14.8001 58.8997 16.2701C58.9797 16.3701 59.0497 16.4701 59.1297 16.5701C59.3097 16.8201 59.5097 17.0701 59.6997 17.2901C59.9397 17.5601 60.1997 17.7001 60.4797 17.7001C60.7897 17.7001 61.1697 17.5001 61.2997 16.9501L61.3697 16.6601L55.7997 9.24007H55.8397Z" fill="#333333"/>
<path d="M87.3601 0.549531C87.2301 0.229531 86.8901 0.0195312 86.5301 0.0195312C86.3601 0.0195312 86.2001 0.0695313 86.0501 0.149531L85.9901 0.179531L78.1401 8.16953V0.849531C78.0801 0.419531 77.71 0.0995312 77.27 0.0995312C77.01 0.0995312 76.7701 0.209531 76.6001 0.389531C76.4401 0.559531 76.3701 0.789531 76.3901 1.01953V16.7895V16.8295C76.3901 16.9395 76.4101 17.1895 76.6001 17.3995C76.7701 17.5795 77.0101 17.6795 77.2601 17.6795C77.7401 17.6795 78.11 17.3295 78.13 16.8595V9.49953L85.8001 17.3095C85.9801 17.5395 86.24 17.6695 86.52 17.6695C86.87 17.6695 87.1801 17.4695 87.3201 17.1595C87.4601 16.8495 87.4001 16.4995 87.1501 16.1995C85.9801 14.9295 84.7401 13.7095 83.5401 12.5195L83.5101 12.4895C82.3001 11.2995 81.0601 10.0695 79.9001 8.80953L87.13 1.44953C87.39 1.18953 87.47 0.829531 87.34 0.519531L87.3601 0.549531Z" fill="#333333"/>
<path d="M96.8697 0.589375C96.7297 0.289375 96.4397 0.109375 96.1097 0.109375C95.9997 0.109375 95.8797 0.129375 95.7797 0.169375L95.5397 0.259375L87.9697 16.9894L88.2097 17.2994C88.2897 17.3994 88.5197 17.7094 88.9197 17.7094C89.2197 17.7094 89.4697 17.5494 89.6597 17.2194L96.0897 3.02938L102.62 17.3594L102.74 17.4794C102.91 17.6194 103.11 17.6994 103.31 17.6994C103.76 17.6994 104.11 17.3394 104.15 16.8394V16.6694L96.8697 0.589375Z" fill="#333333"/>
<path d="M41.8299 0.109375C41.7199 0.109375 41.5999 0.129375 41.4999 0.169375L41.2599 0.259375L33.6899 16.9894L33.9299 17.2994C34.1399 17.5694 34.3799 17.7094 34.6399 17.7094C34.9399 17.7094 35.1899 17.5494 35.3799 17.2194L41.8099 3.02938L48.3399 17.3594L48.4599 17.4794C48.6299 17.6194 48.8299 17.6994 49.0299 17.6994C49.4799 17.6994 49.8299 17.3394 49.8699 16.8394V16.6694L42.5899 0.589375C42.4499 0.289375 42.1599 0.109375 41.8299 0.109375Z" fill="#333333"/>
<path d="M37.4301 22.7996C37.2501 22.6096 37.0801 22.4796 36.9101 22.4196C36.7401 22.3596 36.5801 22.3196 36.4101 22.3196C36.1601 22.3196 35.9301 22.3596 35.7301 22.4496C35.5301 22.5396 35.3501 22.6596 35.2101 22.8196C35.0701 22.9796 34.9501 23.1596 34.8701 23.3696C34.7901 23.5796 34.7501 23.7996 34.7501 24.0496C34.7501 24.3096 34.7901 24.5496 34.8701 24.7696C34.9501 24.9896 35.0601 25.1796 35.2101 25.3396C35.3601 25.4996 35.5301 25.6196 35.7301 25.7196C35.9301 25.8096 36.1601 25.8596 36.4101 25.8596C36.6101 25.8596 36.8001 25.8096 36.9801 25.7196C37.1601 25.6296 37.3401 25.4796 37.5001 25.2696L38.2101 25.7796C37.9901 26.0796 37.7301 26.2996 37.4101 26.4396C37.1001 26.5796 36.7601 26.6396 36.4101 26.6396C36.0401 26.6396 35.6901 26.5796 35.3801 26.4596C35.0701 26.3396 34.8001 26.1696 34.5701 25.9496C34.3401 25.7296 34.1701 25.4596 34.0401 25.1496C33.9101 24.8396 33.8501 24.4996 33.8501 24.1196C33.8501 23.7396 33.9101 23.3796 34.0401 23.0696C34.1701 22.7496 34.3401 22.4796 34.5701 22.2596C34.8001 22.0396 35.0601 21.8696 35.3801 21.7396C35.6901 21.6196 36.0301 21.5596 36.4101 21.5596C36.7401 21.5596 37.0401 21.6196 37.3201 21.7296C37.6001 21.8496 37.8601 22.0396 38.1001 22.3196L37.4301 22.8096V22.7996Z" fill="#333333"/>
<path d="M43.11 21.6699H43.85L45.93 26.4999H44.95L44.5 25.3899H42.4L41.96 26.4999H41L43.1 21.6699H43.11ZM44.21 24.6599L43.47 22.6899L42.71 24.6599H44.21Z" fill="#333333"/>
<path d="M49.2502 21.6699H50.9302C51.1602 21.6699 51.3902 21.6899 51.6002 21.7299C51.8202 21.7699 52.0102 21.8499 52.1802 21.9499C52.3502 22.0499 52.4802 22.1999 52.5802 22.3699C52.6802 22.5499 52.7302 22.7699 52.7302 23.0499C52.7302 23.3999 52.6302 23.6899 52.4402 23.9299C52.2502 24.1699 51.9702 24.3099 51.6102 24.3599L52.8902 26.4999H51.8502L50.7302 24.4499H50.1002V26.4999H49.2402V21.6699H49.2502ZM50.7802 23.7199C50.9002 23.7199 51.0302 23.7199 51.1502 23.6999C51.2702 23.6899 51.3902 23.6599 51.4902 23.6199C51.5902 23.5799 51.6802 23.5099 51.7402 23.4199C51.8002 23.3299 51.8402 23.2099 51.8402 23.0499C51.8402 22.9099 51.8102 22.7999 51.7502 22.7099C51.6902 22.6199 51.6102 22.5599 51.5202 22.5199C51.4202 22.4799 51.3202 22.4499 51.2002 22.4299C51.0802 22.4199 50.9702 22.4099 50.8602 22.4099H50.1202V23.7199H50.7902H50.7802Z" fill="#333333"/>
<path d="M56.3101 21.6699H58.1901C58.3701 21.6699 58.5501 21.6899 58.7301 21.7299C58.9101 21.7699 59.0701 21.8399 59.2001 21.9399C59.3401 22.0399 59.4501 22.1599 59.5401 22.3199C59.6301 22.4699 59.6701 22.6599 59.6701 22.8799C59.6701 23.1499 59.5901 23.3799 59.4401 23.5599C59.2901 23.7399 59.0801 23.8599 58.8301 23.9399C58.9801 23.9699 59.1201 24.0099 59.2501 24.0799C59.3801 24.1499 59.4901 24.2299 59.5801 24.3299C59.6701 24.4299 59.7401 24.5499 59.8001 24.6899C59.8501 24.8199 59.8801 24.9699 59.8801 25.1199C59.8801 25.3799 59.8301 25.5999 59.7201 25.7799C59.6201 25.9599 59.4801 26.0999 59.3101 26.1999C59.1401 26.3099 58.9401 26.3799 58.7201 26.4299C58.5001 26.4799 58.2801 26.4999 58.0501 26.4999H56.3101V21.6699ZM57.1701 23.6399H57.9601C58.2501 23.6399 58.4601 23.5799 58.6101 23.4699C58.7501 23.3599 58.8301 23.2099 58.8301 23.0299C58.8301 22.8199 58.7601 22.6599 58.6101 22.5599C58.4601 22.4599 58.2201 22.4099 57.9001 22.4099H57.1901V23.6399H57.1701ZM57.1701 25.7699H57.9601C58.0701 25.7699 58.1901 25.7699 58.3101 25.7499C58.4401 25.7399 58.5501 25.6999 58.6501 25.6499C58.7501 25.5999 58.8401 25.5299 58.9101 25.4299C58.9801 25.3299 59.0101 25.2099 59.0101 25.0499C59.0101 24.7999 58.9301 24.6199 58.7601 24.5199C58.5901 24.4199 58.3401 24.3699 57.9901 24.3699H57.1601V25.7599L57.1701 25.7699Z" fill="#333333"/>
<path d="M63.2402 24.1098C63.2402 23.7198 63.3002 23.3698 63.4302 23.0598C63.5602 22.7398 63.7302 22.4698 63.9602 22.2498C64.1902 22.0298 64.4502 21.8598 64.7702 21.7298C65.0802 21.6098 65.4202 21.5498 65.8002 21.5498C66.1802 21.5498 66.5202 21.5998 66.8402 21.7198C67.1502 21.8398 67.4202 22.0098 67.6502 22.2298C67.8802 22.4498 68.0602 22.7198 68.1802 23.0398C68.3102 23.3498 68.3702 23.6998 68.3702 24.0898C68.3702 24.4798 68.3102 24.8098 68.1802 25.1198C68.0502 25.4298 67.8802 25.6998 67.6502 25.9198C67.4202 26.1398 67.1502 26.3198 66.8402 26.4398C66.5302 26.5698 66.1802 26.6298 65.8002 26.6298C65.4302 26.6298 65.0802 26.5698 64.7702 26.4498C64.4602 26.3298 64.1902 26.1598 63.9602 25.9398C63.7302 25.7198 63.5602 25.4498 63.4302 25.1398C63.3002 24.8298 63.2402 24.4898 63.2402 24.1098ZM64.1402 24.0498C64.1402 24.3098 64.1802 24.5498 64.2602 24.7698C64.3402 24.9898 64.4502 25.1798 64.6002 25.3398C64.7502 25.4998 64.9202 25.6198 65.1202 25.7198C65.3202 25.8098 65.5502 25.8598 65.8002 25.8598C66.0502 25.8598 66.2802 25.8098 66.4802 25.7198C66.6802 25.6298 66.8602 25.4998 67.0102 25.3398C67.1602 25.1798 67.2702 24.9898 67.3502 24.7698C67.4302 24.5498 67.4702 24.3098 67.4702 24.0498C67.4702 23.8098 67.4302 23.5798 67.3502 23.3698C67.2702 23.1598 67.1602 22.9798 67.0102 22.8198C66.8602 22.6598 66.6902 22.5398 66.4802 22.4498C66.2802 22.3598 66.0502 22.3198 65.8002 22.3198C65.5502 22.3198 65.3202 22.3598 65.1202 22.4498C64.9202 22.5398 64.7402 22.6598 64.6002 22.8198C64.4602 22.9798 64.3402 23.1598 64.2602 23.3698C64.1802 23.5798 64.1402 23.7998 64.1402 24.0498Z" fill="#333333"/>
<path d="M71.9502 21.6699H73.0902L75.4302 25.2599H75.4402V21.6699H76.3002V26.4999H75.2102L72.8202 22.7899H72.8102V26.4999H71.9502V21.6699Z" fill="#333333"/>
<path d="M84.9399 21.6699H85.7999V23.5999H88.0599V21.6699H88.9199V26.4999H88.0599V24.3699H85.7999V26.4999H84.9399V21.6699Z" fill="#333333"/>
<path d="M96.6302 24.7299C96.6302 25.0199 96.5802 25.2799 96.4802 25.5199C96.3802 25.7499 96.2402 25.9499 96.0702 26.1199C95.9002 26.2899 95.6902 26.4099 95.4602 26.4999C95.2202 26.5899 94.9702 26.6299 94.6902 26.6299C94.4102 26.6299 94.1602 26.5899 93.9202 26.4999C93.6802 26.4099 93.4802 26.2799 93.3002 26.1199C93.1202 25.9599 92.9902 25.7599 92.8902 25.5199C92.7902 25.2899 92.7402 25.0199 92.7402 24.7299V21.6699H93.6002V24.6999C93.6002 24.8199 93.6202 24.9399 93.6502 25.0699C93.6802 25.1999 93.7502 25.3199 93.8302 25.4299C93.9102 25.5399 94.0302 25.6299 94.1602 25.6999C94.3002 25.7699 94.4702 25.8099 94.6802 25.8099C94.8902 25.8099 95.0602 25.7699 95.2002 25.6999C95.3402 25.6299 95.4502 25.5399 95.5302 25.4299C95.6102 25.3199 95.6702 25.1999 95.7102 25.0699C95.7502 24.9399 95.7602 24.8199 95.7602 24.6999V21.6699H96.6202V24.7299H96.6302Z" fill="#333333"/>
<path d="M100.46 21.6699H102.34C102.52 21.6699 102.7 21.6899 102.88 21.7299C103.06 21.7699 103.22 21.8399 103.35 21.9399C103.49 22.0399 103.6 22.1599 103.69 22.3199C103.78 22.4699 103.82 22.6599 103.82 22.8799C103.82 23.1499 103.74 23.3799 103.59 23.5599C103.44 23.7399 103.23 23.8599 102.98 23.9399C103.13 23.9699 103.27 24.0099 103.4 24.0799C103.53 24.1499 103.64 24.2299 103.73 24.3299C103.82 24.4299 103.89 24.5499 103.95 24.6899C104 24.8199 104.03 24.9699 104.03 25.1199C104.03 25.3799 103.98 25.5999 103.87 25.7799C103.77 25.9599 103.63 26.0999 103.46 26.1999C103.29 26.3099 103.09 26.3799 102.87 26.4299C102.65 26.4799 102.43 26.4999 102.2 26.4999H100.46V21.6699ZM101.32 23.6399H102.11C102.4 23.6399 102.61 23.5799 102.76 23.4699C102.9 23.3599 102.98 23.2099 102.98 23.0299C102.98 22.8199 102.91 22.6599 102.76 22.5599C102.61 22.4599 102.37 22.4099 102.05 22.4099H101.34V23.6399H101.32ZM101.32 25.7699H102.11C102.22 25.7699 102.34 25.7699 102.46 25.7499C102.59 25.7399 102.7 25.6999 102.8 25.6499C102.9 25.5999 102.99 25.5299 103.06 25.4299C103.13 25.3399 103.16 25.2099 103.16 25.0499C103.16 24.7999 103.08 24.6199 102.91 24.5199C102.74 24.4199 102.49 24.3699 102.14 24.3699H101.31V25.7599L101.32 25.7699Z" fill="#333333"/>
</g>
<defs>
<clipPath id="clip0_2028_646">
<rect width="104.16" height="26.63" fill="white"/>
</clipPath>
</defs>
</svg>
